<mxfile host="app.diagrams.net" modified="2023-10-28T08:23:52.948Z" agent="Mozilla/5.0 (Windows NT 10.0; Win64; x64; rv:109.0) Gecko/20100101 Firefox/117.0" etag="7zs6CWR2SVjx2-GZ-syn" version="22.0.8" type="github">
  <diagram name="第 1 页" id="Kv1g2cWNmDUzKT-I0tPs">
    <mxGraphModel dx="407" dy="244" grid="1" gridSize="10" guides="1" tooltips="1" connect="1" arrows="1" fold="1" page="1" pageScale="1" pageWidth="827" pageHeight="1169" math="0" shadow="0">
      <root>
        <mxCell id="0" />
        <mxCell id="1" parent="0" />
        <mxCell id="ybtzGjQQWgPssiMgLpUO-7" value="&lt;div&gt;&lt;b&gt;&lt;br&gt;&lt;/b&gt;&lt;/div&gt;&lt;div&gt;&lt;b&gt;客户端&lt;/b&gt;&lt;/div&gt;" style="shape=actor;whiteSpace=wrap;html=1;fillColor=#fff2cc;fontFamily=Times New Roman;strokeColor=#d6b656;" parent="1" vertex="1">
          <mxGeometry x="185" y="90" width="60" height="60" as="geometry" />
        </mxCell>
        <mxCell id="ybtzGjQQWgPssiMgLpUO-8" value="&lt;div&gt;&lt;b&gt;&lt;br&gt;&lt;/b&gt;&lt;/div&gt;&lt;div&gt;&lt;b&gt;服务器&lt;br&gt;&lt;/b&gt;&lt;/div&gt;" style="shape=actor;whiteSpace=wrap;html=1;fillColor=#ffe6cc;fontFamily=Times New Roman;strokeColor=#d79b00;" parent="1" vertex="1">
          <mxGeometry x="450" y="90" width="60" height="60" as="geometry" />
        </mxCell>
        <mxCell id="ybtzGjQQWgPssiMgLpUO-9" value="Socket()" style="rounded=1;whiteSpace=wrap;html=1;fillColor=#C7A78F;opacity=40;fontFamily=Lucida Console;fontSize=14;" parent="1" vertex="1">
          <mxGeometry x="435" y="180" width="90" height="30" as="geometry" />
        </mxCell>
        <mxCell id="ybtzGjQQWgPssiMgLpUO-10" value="Bind()" style="rounded=1;whiteSpace=wrap;html=1;fillColor=#C7A78F;opacity=40;fontFamily=Lucida Console;fontSize=14;" parent="1" vertex="1">
          <mxGeometry x="435" y="248" width="90" height="30" as="geometry" />
        </mxCell>
        <mxCell id="ybtzGjQQWgPssiMgLpUO-11" value="Listen()" style="rounded=1;whiteSpace=wrap;html=1;fillColor=#C7A78F;opacity=40;fontFamily=Lucida Console;fontSize=14;" parent="1" vertex="1">
          <mxGeometry x="435" y="315" width="90" height="30" as="geometry" />
        </mxCell>
        <mxCell id="ybtzGjQQWgPssiMgLpUO-12" value="Accept()" style="rounded=1;whiteSpace=wrap;html=1;fillColor=#C7A78F;opacity=40;fontFamily=Lucida Console;fontSize=14;" parent="1" vertex="1">
          <mxGeometry x="435" y="383" width="90" height="30" as="geometry" />
        </mxCell>
        <mxCell id="ybtzGjQQWgPssiMgLpUO-13" value="Receive()" style="rounded=1;whiteSpace=wrap;html=1;fillColor=#C7A78F;opacity=40;fontFamily=Lucida Console;fontSize=14;" parent="1" vertex="1">
          <mxGeometry x="435" y="450" width="90" height="30" as="geometry" />
        </mxCell>
        <mxCell id="ybtzGjQQWgPssiMgLpUO-14" value="Send()" style="rounded=1;whiteSpace=wrap;html=1;fillColor=#C7A78F;opacity=40;fontFamily=Lucida Console;fontSize=14;" parent="1" vertex="1">
          <mxGeometry x="435" y="520" width="90" height="30" as="geometry" />
        </mxCell>
        <mxCell id="ybtzGjQQWgPssiMgLpUO-15" value="Connect()" style="rounded=1;whiteSpace=wrap;html=1;fillColor=#C7A78F;opacity=40;fontFamily=Lucida Console;fontSize=14;" parent="1" vertex="1">
          <mxGeometry x="170" y="381.5" width="90" height="30" as="geometry" />
        </mxCell>
        <mxCell id="ybtzGjQQWgPssiMgLpUO-16" value="Send()" style="rounded=1;whiteSpace=wrap;html=1;fillColor=#C7A78F;opacity=40;fontFamily=Lucida Console;fontSize=14;" parent="1" vertex="1">
          <mxGeometry x="170" y="448.5" width="90" height="30" as="geometry" />
        </mxCell>
        <mxCell id="ybtzGjQQWgPssiMgLpUO-17" value="Receive()" style="rounded=1;whiteSpace=wrap;html=1;fillColor=#C7A78F;opacity=40;fontFamily=Lucida Console;fontSize=14;" parent="1" vertex="1">
          <mxGeometry x="170" y="518.5" width="90" height="30" as="geometry" />
        </mxCell>
        <mxCell id="ybtzGjQQWgPssiMgLpUO-18" value="Socket()" style="rounded=1;whiteSpace=wrap;html=1;fillColor=#C7A78F;opacity=40;fontFamily=Lucida Console;fontSize=14;" parent="1" vertex="1">
          <mxGeometry x="170" y="180" width="90" height="30" as="geometry" />
        </mxCell>
        <mxCell id="ybtzGjQQWgPssiMgLpUO-20" value="" style="shape=singleArrow;direction=south;whiteSpace=wrap;html=1;arrowWidth=0.2933333333333303;arrowSize=0.08431372549019597;fillColor=#D5E8D4;strokeColor=#82b366;fontSize=14;" parent="1" vertex="1">
          <mxGeometry x="207.5" y="211.5" width="15" height="170" as="geometry" />
        </mxCell>
        <mxCell id="ybtzGjQQWgPssiMgLpUO-21" value="" style="shape=singleArrow;direction=south;whiteSpace=wrap;html=1;arrowWidth=0.3310344827586221;arrowSize=0.2463601532567035;fillColor=#D5E8D4;strokeColor=#82b366;" parent="1" vertex="1">
          <mxGeometry x="205" y="150" width="20" height="30" as="geometry" />
        </mxCell>
        <mxCell id="ybtzGjQQWgPssiMgLpUO-22" value="" style="shape=singleArrow;direction=south;whiteSpace=wrap;html=1;arrowWidth=0.3310344827586221;arrowSize=0.2463601532567035;fillColor=#D5E8D4;strokeColor=#82b366;" parent="1" vertex="1">
          <mxGeometry x="470" y="150" width="20" height="30" as="geometry" />
        </mxCell>
        <mxCell id="ybtzGjQQWgPssiMgLpUO-23" value="" style="shape=singleArrow;direction=south;whiteSpace=wrap;html=1;arrowWidth=0.3310344827586221;arrowSize=0.2463601532567035;fillColor=#D5E8D4;strokeColor=#82b366;fontSize=14;" parent="1" vertex="1">
          <mxGeometry x="470" y="211.5" width="20" height="38.5" as="geometry" />
        </mxCell>
        <mxCell id="ybtzGjQQWgPssiMgLpUO-24" value="" style="shape=singleArrow;direction=south;whiteSpace=wrap;html=1;arrowWidth=0.3310344827586221;arrowSize=0.2463601532567035;fillColor=#D5E8D4;strokeColor=#82b366;fontSize=14;" parent="1" vertex="1">
          <mxGeometry x="470" y="277.25" width="20" height="38.5" as="geometry" />
        </mxCell>
        <mxCell id="ybtzGjQQWgPssiMgLpUO-25" value="" style="shape=singleArrow;direction=south;whiteSpace=wrap;html=1;arrowWidth=0.3310344827586221;arrowSize=0.2463601532567035;fillColor=#D5E8D4;strokeColor=#82b366;fontSize=14;" parent="1" vertex="1">
          <mxGeometry x="470" y="345" width="20" height="38.5" as="geometry" />
        </mxCell>
        <mxCell id="ybtzGjQQWgPssiMgLpUO-26" value="" style="shape=singleArrow;direction=south;whiteSpace=wrap;html=1;arrowWidth=0.3310344827586221;arrowSize=0.2463601532567035;fillColor=#D5E8D4;strokeColor=#82b366;fontSize=14;" parent="1" vertex="1">
          <mxGeometry x="470" y="413" width="20" height="38.5" as="geometry" />
        </mxCell>
        <mxCell id="ybtzGjQQWgPssiMgLpUO-27" value="" style="shape=singleArrow;direction=south;whiteSpace=wrap;html=1;arrowWidth=0.3310344827586221;arrowSize=0.2463601532567035;fillColor=#D5E8D4;strokeColor=#82b366;fontSize=14;" parent="1" vertex="1">
          <mxGeometry x="470" y="481.5" width="20" height="38.5" as="geometry" />
        </mxCell>
        <mxCell id="ybtzGjQQWgPssiMgLpUO-28" value="" style="shape=singleArrow;direction=south;whiteSpace=wrap;html=1;arrowWidth=0.3310344827586221;arrowSize=0.2463601532567035;fillColor=#D5E8D4;strokeColor=#82b366;fontSize=14;" parent="1" vertex="1">
          <mxGeometry x="205" y="411.5" width="20" height="38.5" as="geometry" />
        </mxCell>
        <mxCell id="ybtzGjQQWgPssiMgLpUO-29" value="" style="shape=singleArrow;direction=south;whiteSpace=wrap;html=1;arrowWidth=0.3310344827586221;arrowSize=0.2463601532567035;fillColor=#D5E8D4;strokeColor=#82b366;fontSize=14;" parent="1" vertex="1">
          <mxGeometry x="205" y="480" width="20" height="38.5" as="geometry" />
        </mxCell>
        <mxCell id="Ww_Y5r2akfl2BT6vcZ_H-1" value="捕捉异常" style="rounded=1;whiteSpace=wrap;html=1;fillColor=#C7A78F;opacity=40;fontFamily=Lucida Console;fontSize=14;" parent="1" vertex="1">
          <mxGeometry x="435" y="588.5" width="90" height="30" as="geometry" />
        </mxCell>
        <mxCell id="Ww_Y5r2akfl2BT6vcZ_H-2" value="Close()" style="rounded=1;whiteSpace=wrap;html=1;fillColor=#C7A78F;opacity=40;fontFamily=Lucida Console;fontSize=14;" parent="1" vertex="1">
          <mxGeometry x="170" y="587" width="90" height="30" as="geometry" />
        </mxCell>
        <mxCell id="Ww_Y5r2akfl2BT6vcZ_H-3" value="" style="shape=singleArrow;direction=south;whiteSpace=wrap;html=1;arrowWidth=0.3310344827586221;arrowSize=0.2463601532567035;fillColor=#D5E8D4;strokeColor=#82b366;fontSize=14;" parent="1" vertex="1">
          <mxGeometry x="470" y="550" width="20" height="38.5" as="geometry" />
        </mxCell>
        <mxCell id="Ww_Y5r2akfl2BT6vcZ_H-4" value="" style="shape=singleArrow;direction=south;whiteSpace=wrap;html=1;arrowWidth=0.3310344827586221;arrowSize=0.2463601532567035;fillColor=#D5E8D4;strokeColor=#82b366;fontSize=14;" parent="1" vertex="1">
          <mxGeometry x="205" y="548.5" width="20" height="38.5" as="geometry" />
        </mxCell>
        <mxCell id="i9jQ_5dW7NH1lLcNPkjX-1" value="" style="shape=flexArrow;endArrow=classic;startArrow=classic;html=1;rounded=0;entryX=0;entryY=0.5;entryDx=0;entryDy=0;exitX=1;exitY=0.5;exitDx=0;exitDy=0;width=4.333333333333333;startSize=3.7195402298850575;startWidth=8.8;endWidth=8.8;endSize=4.673333333333333;" edge="1" parent="1" source="ybtzGjQQWgPssiMgLpUO-15" target="ybtzGjQQWgPssiMgLpUO-12">
          <mxGeometry width="100" height="100" relative="1" as="geometry">
            <mxPoint x="280" y="400" as="sourcePoint" />
            <mxPoint x="380" y="300" as="targetPoint" />
          </mxGeometry>
        </mxCell>
      </root>
    </mxGraphModel>
  </diagram>
</mxfile>
